<svg width="241" height="206" viewBox="0 0 241 206" fill="none" xmlns="http://www.w3.org/2000/svg">
<path d="M192.837 131.33C158.816 111.872 164.61 55.0772 201.512 55.0772C217.428 55.0772 231.202 67.0089 237.335 82.2628C251.499 117.493 222.045 148.041 192.837 131.33Z" fill="#FFFEFD" fill-opacity="0.2"/>
<path d="M157.896 124.297C198.714 124.297 210.936 193.42 172.156 204.784C154.488 209.96 134.397 197.541 127.944 174.838C120.704 149.392 134.948 124.297 157.896 124.297Z" fill="#FFFEFD" fill-opacity="0.2"/>
<path d="M147.398 1.25578C141.729 2.81853 131.668 3.82518 121.137 3.97062C110.005 4.13317 98.3508 3.33755 90.8101 1.25578C70.4438 -4.40208 42.7314 9.28628 48.8118 37.7153C54.4361 63.997 74.6439 62.4998 79.4225 87.407C84.2374 112.579 102.949 124.728 121.137 123.778C137.971 122.897 154.354 110.791 158.818 87.4013C163.569 62.477 183.735 63.9884 189.351 37.7153C195.454 9.26347 167.683 -4.35075 147.398 1.25578Z" fill="#FFFEFD" fill-opacity="0.2"/>
<path d="M86.0555 124.295C97.6015 124.295 107.518 130.982 113.028 141.217C129.408 171.651 102.505 213.782 71.7919 204.759C32.9453 193.364 45.2591 124.295 86.0555 124.295Z" fill="#FFFEFD" fill-opacity="0.2"/>
<path d="M67.6054 77.7086C80.712 109.688 49.6451 148.751 19.9746 136.46C-15.7653 121.657 -0.00238381 57.8092 39.295 57.8092C51.9065 57.8092 62.6237 65.5517 67.6054 77.7086Z" fill="#FFFEFD" fill-opacity="0.2"/>
</svg>
